<svg version="1.1" id="Layer_1" xmlns="http://www.w3.org/2000/svg" xmlns:xlink="http://www.w3.org/1999/xlink" x="0px" y="0px"
	 width="100%" viewBox="0 0 512 512" enable-background="new 0 0 512 512" xml:space="preserve">
<path fill="#FFFFFF" opacity="1.000000" stroke="none" 
	d="
M513.000000,197.000000 
	C513.000000,301.307983 512.981812,405.116028 513.083740,508.923889 
	C513.086975,512.180725 512.657898,513.106140 509.077911,513.103577 
	C341.118988,512.984558 173.159973,512.983459 5.201079,513.106689 
	C1.463617,513.109436 0.911791,512.177979 0.913833,508.703003 
	C1.012438,340.910706 1.011085,173.118332 0.921321,5.326012 
	C0.919508,1.936034 1.351212,0.884108 5.172043,0.887083 
	C173.130936,1.017860 341.089966,1.014654 509.048889,0.899628 
	C512.569580,0.897217 513.095703,1.727590 513.089417,5.047155 
	C512.968567,68.864594 513.000000,132.682327 513.000000,197.000000 
z"/>
<path fill="#3E3364" opacity="1.000000" stroke="none" 
	d="
M463.578674,145.649170 
	C472.474243,147.899033 478.070770,153.080002 480.987671,161.663055 
	C481.334198,162.282120 481.529907,162.574188 481.554871,163.082123 
	C481.393097,163.291962 481.412781,163.437881 481.425873,163.510330 
	C483.816742,164.623428 483.461487,166.856018 483.472290,168.738251 
	C483.575226,186.696198 483.814575,204.659683 483.419800,222.611328 
	C483.093353,237.456558 473.158539,246.756546 457.675842,247.488708 
	C448.405487,247.927109 448.322937,247.927872 448.413635,257.400513 
	C448.692291,286.499420 448.464539,315.598602 448.524414,344.697571 
	C448.529846,347.336365 448.852997,350.038391 447.304199,352.899292 
	C444.277893,353.803101 444.017700,351.769623 443.667480,349.991089 
	C443.281403,348.030365 443.418671,346.020172 443.418121,344.029449 
	C443.410828,318.131348 443.438293,292.233185 443.380798,266.335205 
	C443.374695,263.599548 443.967560,260.659821 441.472443,258.005737 
	C440.001648,256.513977 439.763428,255.091187 440.198029,253.150299 
	C442.380463,250.856064 443.111389,248.301758 443.909210,245.750687 
	C444.939362,242.456818 446.410889,240.193069 450.713715,241.368500 
	C454.047729,242.279297 457.661987,241.728134 461.149078,241.602722 
	C464.840729,241.469925 467.205597,240.034531 466.425751,235.378799 
	C470.743622,230.384933 471.689606,224.938736 471.592773,218.838882 
	C471.328491,202.189713 471.543213,185.533539 471.485046,168.880371 
	C471.452362,159.525696 467.453583,155.530441 458.026672,155.517593 
	C423.720886,155.470825 389.414978,155.471161 355.109192,155.517654 
	C346.035767,155.529968 341.175842,159.475571 340.810791,168.535965 
	C340.087006,186.501099 340.093506,204.504852 340.810211,222.470612 
	C341.164276,231.346008 344.955505,234.784683 353.869202,236.048553 
	C360.985809,237.057648 368.172211,236.338760 375.325439,236.502411 
	C382.807129,236.673538 384.249451,238.125000 384.502472,245.688828 
	C384.583344,248.107498 384.026337,250.630325 385.286774,253.237045 
	C391.048035,249.914841 395.209503,245.086914 399.934235,240.993362 
	C403.717468,237.715500 407.733521,236.381439 412.672028,236.442581 
	C426.658630,236.615799 440.648865,236.497925 454.637665,236.508469 
	C456.632874,236.509979 458.639160,236.420364 460.991211,237.098343 
	C463.809479,240.198227 461.670380,240.687347 459.400696,240.560196 
	C455.603027,240.347473 451.811829,240.324341 448.030914,240.561462 
	C442.753510,240.892441 442.150635,241.610504 442.071533,246.847519 
	C442.049255,248.322556 442.330109,249.821472 441.350281,251.546051 
	C440.291077,252.455856 439.491547,252.199509 438.328705,251.598038 
	C436.265350,248.130020 433.495819,247.152527 430.039612,247.464417 
	C428.718384,247.583633 427.376526,247.477783 426.044067,247.481796 
	C405.520203,247.543671 412.052460,246.210922 396.934418,258.791382 
	C392.715424,262.302216 388.699890,266.068237 384.485565,269.590424 
	C382.409180,271.325745 379.982880,272.710785 377.145142,271.469086 
	C374.074066,270.125305 373.639771,267.276001 373.562164,264.341797 
	C373.456482,260.345367 373.474487,256.346252 373.522186,252.350754 
	C373.562042,249.010239 372.111877,247.480774 368.744446,247.489975 
	C364.081635,247.502716 359.415466,247.592773 354.754700,247.438324 
	C339.036560,246.917450 329.656219,237.439957 329.549377,221.774780 
	C329.432343,204.620071 329.487854,187.464081 329.530334,170.308792 
	C329.570770,153.986832 338.990173,144.161804 355.372955,143.606583 
	C365.191742,143.273834 375.024994,143.531830 384.851685,143.522141 
	C400.008392,143.507202 415.165253,143.552597 430.321655,143.480759 
	C432.365570,143.471085 435.149475,144.223328 435.980743,141.577423 
	C436.975800,138.410233 437.266754,134.865112 435.678070,131.839127 
	C434.655273,129.890991 432.084473,130.511230 430.136383,130.504440 
	C415.479492,130.453308 400.822388,130.500992 386.165375,130.467957 
	C382.018250,130.458618 378.014709,130.161392 376.598175,124.723068 
	C378.220306,119.668579 382.114014,119.453217 386.035126,119.435349 
	C400.200378,119.370773 414.365906,119.419937 428.531311,119.406403 
	C430.197113,119.404808 431.861115,119.383408 433.527039,119.283791 
	C435.934235,119.139839 437.231415,117.931496 437.261658,115.522980 
	C437.410126,103.696373 437.975037,91.846024 436.991882,80.053856 
	C436.405243,73.017418 433.071350,70.162994 426.163971,69.033562 
	C423.352112,68.573792 420.519562,68.593323 417.686768,68.593254 
	C307.863007,68.590652 198.039230,68.592697 88.215469,68.585487 
	C84.373543,68.585236 80.540726,68.638359 76.803017,69.653694 
	C71.741920,71.028526 68.913223,74.050781 68.749306,79.178337 
	C68.371246,91.003891 68.633362,102.839294 68.613472,114.670662 
	C68.607681,118.110611 70.308937,119.438148 73.555061,119.383316 
	C75.386017,119.352371 77.220688,119.407494 79.053719,119.407532 
	C151.214096,119.408875 223.374481,119.407837 295.534851,119.411476 
	C297.867157,119.411591 300.202484,119.340218 302.529999,119.553123 
	C305.203278,119.797661 307.405853,120.703537 308.174103,124.111946 
	C308.273102,128.388306 305.896454,129.833008 302.588257,130.305206 
	C300.106293,130.659470 297.599884,130.533493 295.103088,130.533676 
	C223.481598,130.539078 151.860107,130.537689 80.238625,130.537811 
	C79.072693,130.537811 77.906754,130.535172 76.740829,130.538467 
	C68.557503,130.561676 68.549896,130.561996 68.540352,138.968216 
	C68.532600,145.797226 68.480659,152.626831 68.560181,159.455093 
	C68.624039,164.937195 69.075912,165.426132 74.621765,165.438766 
	C98.606537,165.493393 122.591461,165.457718 146.576324,165.462494 
	C158.235626,165.464813 169.895584,165.381973 181.554092,165.485550 
	C198.785675,165.638611 210.469543,177.284821 210.518417,194.392609 
	C210.586945,218.377289 210.574463,242.362381 210.522537,266.347137 
	C210.487762,282.407166 200.825027,293.413422 185.054276,295.788422 
	C176.753403,297.038483 168.426514,296.316376 160.113113,296.530762 
	C154.067978,296.686646 153.626312,297.053162 153.553238,303.133087 
	C153.487167,308.629028 153.608429,314.126984 153.503555,319.622101 
	C153.447052,322.583130 153.841019,325.957275 150.510788,327.515533 
	C147.110077,329.106812 144.363617,327.058197 141.914856,325.012909 
	C135.269379,319.462494 128.831696,313.668701 122.324112,307.957489 
	C106.795601,294.329285 112.074364,296.810272 93.270935,296.552368 
	C86.942902,296.465546 80.611488,296.463257 74.283485,296.568054 
	C69.160217,296.652863 68.586563,297.205597 68.563568,302.413727 
	C68.483391,320.568726 68.573257,338.724121 68.509056,357.309143 
	C68.364723,366.033936 71.067902,369.360809 79.894623,371.406677 
	C81.995552,372.326599 83.775482,372.588806 85.632431,372.588989 
	C121.184700,372.593018 156.736969,372.624817 192.289230,372.563446 
	C193.120743,372.562012 193.949081,372.503571 195.168518,372.152466 
	C196.056046,371.720825 196.563217,371.508301 197.476654,371.320251 
	C199.956909,371.250885 202.080032,373.428894 204.374893,370.948669 
	C206.171143,368.295959 205.599503,365.610535 205.633087,362.615540 
	C205.525558,358.391418 205.882919,354.535645 205.518951,350.741150 
	C204.175995,336.740173 216.472794,323.392181 232.334579,323.540283 
	C249.141846,323.697235 265.952545,323.518585 282.760895,323.614838 
	C286.633240,323.636993 289.813293,322.641785 292.751343,320.022766 
	C300.447601,313.162170 308.232910,306.400085 315.931824,299.541016 
	C316.552521,298.988007 317.119812,298.373901 317.756989,297.838776 
	C319.987061,295.966003 322.344788,294.313965 325.433502,295.599640 
	C328.487976,296.871094 329.205627,299.619598 329.335999,302.568390 
	C329.549164,307.391327 329.385468,312.219666 329.432159,317.045380 
	C329.492279,323.255707 329.737000,323.518982 335.897156,323.563263 
	C341.555420,323.603973 347.215942,323.469055 352.872101,323.604126 
	C368.334137,323.973358 379.102356,334.808746 379.407288,350.267578 
	C379.486023,354.260223 379.454102,358.255524 379.423340,362.675720 
	C379.593964,370.518066 379.593964,370.538696 386.933899,370.536560 
	C399.378754,370.532959 411.825897,370.701233 424.267731,370.467346 
	C432.577362,370.311127 435.795349,367.093872 436.731598,358.368164 
	C437.055328,356.297363 437.903931,354.914185 439.146759,353.312622 
	C439.627777,352.915131 439.847931,352.800629 440.430176,352.687073 
	C442.275482,355.376190 445.238464,353.633331 447.439087,355.129211 
	C449.188721,369.859558 442.057007,377.905304 430.493774,380.971008 
	C429.253601,381.240204 428.404724,381.276245 427.121948,381.354828 
	C426.098022,381.446808 425.507965,381.468536 424.464386,381.435211 
	C410.846191,381.382172 397.678223,381.526428 384.514740,381.336029 
	C380.621887,381.279724 379.203735,382.511932 379.340729,386.455139 
	C379.589386,393.613098 379.364044,400.785553 379.470154,408.418335 
	C379.751465,414.582977 379.474121,420.181152 376.892761,425.451447 
	C371.435242,436.593903 361.699860,440.325897 350.209229,440.475708 
	C332.082214,440.712006 313.950653,440.539551 295.821014,440.542999 
	C276.194427,440.546753 256.567841,440.559235 236.941269,440.531982 
	C233.115921,440.526672 229.271973,440.517151 225.364166,438.384644 
	C212.415909,433.379242 206.170746,424.460541 206.871017,410.444702 
	C206.752472,402.362579 205.786423,394.783051 205.496033,387.163971 
	C205.402252,384.703400 205.767639,381.896362 201.657043,381.571289 
	C199.763306,381.351715 198.294495,381.370300 196.371704,381.445587 
	C194.684586,381.555359 193.450119,381.520844 191.739929,381.478882 
	C155.171631,381.360931 119.079132,381.430511 82.511124,381.423767 
	C80.785309,381.510406 79.536552,381.503937 77.836487,381.288147 
	C76.788513,381.054199 76.230942,380.812317 75.366203,380.187256 
	C62.566101,375.347656 58.676235,369.762024 58.666569,356.428436 
	C58.655602,341.293518 58.636906,326.158600 58.519547,310.574707 
	C56.951740,306.961365 57.575386,303.583527 57.518398,300.299988 
	C57.460297,296.952209 55.973907,295.487671 52.665630,295.502716 
	C49.015667,295.519348 45.363533,295.546265 41.713417,295.457367 
	C39.210445,295.396393 36.710808,295.288361 34.348938,293.228027 
	C21.268909,287.193726 16.083775,277.146729 16.274004,263.388123 
	C16.582546,241.072433 16.334883,218.749344 16.363457,196.429428 
	C16.387194,177.888748 27.309317,167.002090 45.864441,166.949356 
	C48.362919,166.942245 50.916130,166.617599 53.348328,167.019287 
	C58.123337,167.807907 58.729065,165.478760 58.707275,161.454376 
	C58.564781,135.137619 58.595833,108.819740 58.626556,82.502289 
	C58.644524,67.112785 66.258118,59.401211 81.592781,59.397282 
	C195.857590,59.368004 310.122406,59.371025 424.387207,59.394409 
	C435.840210,59.396751 441.909393,63.684677 446.076965,74.640274 
	C446.351471,75.287811 446.526031,75.573181 446.588470,76.067139 
	C446.461334,76.284882 446.499939,76.388161 446.502441,76.443237 
	C449.255035,78.316429 448.505707,81.200981 448.518738,83.716377 
	C448.608093,100.959526 448.552338,118.203278 448.568634,135.446823 
	C448.575897,143.131516 448.593506,143.163483 456.120605,143.448318 
	C458.653107,143.544144 461.071136,143.865219 463.578674,145.649170 
z"/>
<path fill="#E6E7EA" opacity="1.000000" stroke="none" 
	d="
M224.990692,438.469238 
	C267.740051,439.296692 310.505096,438.432892 353.265808,438.556854 
	C366.682739,438.595764 379.028503,428.610168 377.989380,409.419434 
	C379.085938,401.863983 378.273193,394.718842 378.501526,387.594055 
	C378.648224,383.015350 379.209503,384.335602 383.683655,382.229370 
	C390.465027,379.037018 397.043182,381.194244 403.648376,380.635895 
	C410.423523,380.063232 417.280518,380.576233 424.533478,380.312866 
	C425.421143,380.107178 425.876678,380.057220 426.671265,380.072937 
	C427.818420,380.876221 428.674011,381.118835 429.813721,380.165619 
	C442.849152,375.176575 446.936157,369.249023 446.499756,355.411682 
	C446.197540,354.563660 446.123474,354.110260 446.260590,353.308319 
	C446.483826,350.327698 446.701843,347.679565 446.704010,345.031250 
	C446.729370,313.741577 446.848877,282.450867 446.590851,251.163345 
	C446.551117,246.346359 448.055847,245.351227 452.386230,245.650696 
	C458.319122,246.061020 464.231232,245.933807 469.783112,243.005630 
	C477.183899,239.102234 481.408875,232.983215 481.503021,224.821594 
	C481.735199,204.692352 481.439392,184.557053 481.397400,164.003479 
	C488.925873,163.719681 496.235260,170.978409 497.015717,178.833984 
	C498.962402,198.428116 497.753998,218.069901 497.880463,237.686829 
	C497.937622,246.548584 494.847473,254.282944 486.525391,258.969666 
	C481.698242,261.688171 476.294678,261.625732 471.077698,261.891052 
	C461.900818,262.357727 463.008331,260.718567 462.996979,270.347504 
	C462.957123,304.164917 463.062866,337.982758 462.908417,371.799530 
	C462.879761,378.080597 462.124115,384.320984 457.286469,389.328522 
	C452.804382,393.968018 447.365662,395.907623 441.194702,395.958801 
	C427.035675,396.076294 412.873291,396.112396 398.716095,395.911682 
	C394.968384,395.858582 393.818970,396.991882 393.914764,400.727234 
	C394.153809,410.050018 394.288330,419.394989 393.915833,428.709106 
	C393.438446,440.647247 389.314545,449.349731 377.342438,453.157837 
	C373.167938,454.485718 368.549713,454.890320 364.131348,454.905579 
	C326.316193,455.036194 288.500427,454.981842 250.684830,454.979889 
	C236.974777,454.979187 227.395813,448.021210 224.990692,438.469238 
z"/>
<path fill="#E6E7EA" opacity="1.000000" stroke="none" 
	d="
M76.782326,380.296082 
	C78.076279,380.075439 79.160187,380.036377 80.644470,380.075836 
	C81.980415,380.619751 82.989403,380.512482 83.978882,380.511780 
	C119.667244,380.486755 155.355652,380.575073 191.504120,380.312683 
	C193.053177,380.104736 194.142075,380.054810 195.634521,380.077820 
	C197.449936,380.845062 198.941162,380.418884 200.680389,380.312195 
	C205.611176,379.046875 207.341843,380.552338 207.059525,385.598541 
	C206.623108,393.399841 206.967590,401.244781 206.897888,409.532715 
	C205.177689,407.194183 205.951065,404.108032 206.119476,401.225128 
	C206.362350,397.067261 204.958038,395.888214 200.794464,395.907227 
	C166.194611,396.065491 131.593719,396.006500 96.993134,395.989777 
	C88.298775,395.985565 81.172691,392.965607 76.721863,385.069702 
	C76.332001,384.378052 76.241074,383.517853 76.003716,382.368591 
	C76.024361,381.431396 76.196014,380.915802 76.782326,380.296082 
z"/>
<path fill="#E6E6E9" opacity="1.000000" stroke="none" 
	d="
M463.813751,145.481842 
	C459.692627,145.758881 455.365723,145.399170 451.078278,145.668121 
	C447.412262,145.898087 446.635956,144.450089 446.655762,141.101151 
	C446.774414,121.010612 446.710999,100.918968 446.693726,80.827705 
	C446.692719,79.669617 446.561005,78.511635 446.497559,76.925957 
	C455.817871,77.063660 462.891296,85.874924 462.959717,97.259102 
	C463.044861,111.419243 462.966858,125.580315 462.996094,139.740906 
	C462.999817,141.544525 462.602417,143.422455 463.813751,145.481842 
z"/>
<path fill="#D8D6DF" opacity="1.000000" stroke="none" 
	d="
M34.070686,293.290833 
	C40.863491,294.828064 47.871326,294.303040 54.823654,294.212128 
	C57.904198,294.171844 58.970188,295.196320 58.783169,298.236023 
	C58.558861,301.881744 58.695667,305.549683 58.546810,309.666870 
	C46.523766,310.223724 39.137287,303.677979 34.070686,293.290833 
z"/>
<path fill="#EAE6FB" opacity="1.000000" stroke="none" 
	d="
M76.673264,380.009125 
	C76.819969,380.641266 76.647583,381.167999 76.235664,381.847961 
	C75.678444,381.504395 75.360764,381.007538 75.032516,380.200073 
	C75.466026,379.894165 75.910095,379.898926 76.673264,380.009125 
z"/>
<path fill="#E6E7EA" opacity="1.000000" stroke="none" 
	d="
M481.525055,163.067047 
	C481.135742,163.072388 481.012573,162.793533 481.076355,162.225830 
	C481.305084,162.278244 481.481049,162.560196 481.525055,163.067047 
z"/>
<path fill="#E6E6E9" opacity="1.000000" stroke="none" 
	d="
M446.583801,76.059013 
	C446.207031,76.065323 446.087585,75.787712 446.147644,75.222549 
	C446.363586,75.273087 446.534943,75.553116 446.583801,76.059013 
z"/>
<path fill="#D4FAFE" opacity="1.000000" stroke="none" 
	d="
M439.248627,352.691833 
	C438.824585,354.192169 438.689880,355.291382 438.415009,356.640259 
	C436.104218,363.268585 430.699493,364.251648 425.105499,364.432343 
	C415.124756,364.754669 405.131470,364.646332 395.147766,364.492004 
	C389.704041,364.407837 384.168762,365.478058 378.443542,363.295990 
	C378.000885,358.672119 377.960175,354.345459 377.856934,350.020294 
	C377.510254,335.491180 367.303101,325.320099 352.778656,325.118347 
	C345.782715,325.021149 338.777832,324.926636 331.789673,325.180054 
	C328.409882,325.302612 327.573761,324.133148 327.699463,320.934814 
	C327.941345,314.779938 327.794800,308.608887 327.768219,302.444733 
	C327.758057,300.086731 327.723083,297.685181 325.027496,296.556854 
	C322.491638,295.495422 320.949921,297.248596 319.351868,298.652527 
	C310.342834,306.567169 301.303223,314.449005 292.414673,322.497345 
	C290.282104,324.428314 288.154053,325.178925 285.302368,325.160217 
	C267.976410,325.046356 250.649185,325.062164 233.322693,325.120667 
	C216.761414,325.176575 206.977493,335.041992 206.943954,351.582153 
	C206.936859,355.080780 206.930511,358.579376 206.849075,362.541321 
	C204.892365,364.861664 202.461594,364.563385 200.172699,364.565582 
	C161.381439,364.603027 122.589737,364.690826 83.799316,364.490204 
	C78.106964,364.460724 71.975746,364.727234 67.276642,359.326965 
	C66.868591,338.491180 66.820892,318.009949 66.692673,297.529236 
	C66.677879,295.167664 67.497032,294.350586 69.878609,294.367584 
	C82.371284,294.456726 94.865273,294.461548 107.357956,294.374451 
	C110.080139,294.355469 111.543846,296.177643 113.250252,297.674042 
	C123.515289,306.675537 133.748428,315.713501 143.973816,324.760071 
	C145.764923,326.344696 147.531921,327.988678 150.139313,326.677216 
	C152.551529,325.463837 152.212067,323.127655 152.214035,320.976959 
	C152.220490,313.980560 152.558823,306.962067 152.105682,299.995300 
	C151.790131,295.143463 153.610931,294.141449 158.009872,294.325226 
	C165.491867,294.637787 172.999420,294.463867 180.493530,294.336090 
	C198.375687,294.031372 209.034988,283.302887 209.075424,265.533905 
	C209.128494,242.212631 209.126633,218.891068 209.076935,195.569778 
	C209.039398,177.962738 198.000488,166.979584 180.333740,166.963699 
	C144.185608,166.931213 108.037109,166.884781 71.889732,167.053146 
	C67.803230,167.072159 66.484245,166.160797 66.633011,161.912354 
	C66.965073,152.429138 66.894295,142.921219 66.632652,133.433151 
	C66.531036,129.748123 67.481049,128.660995 71.302856,128.685364 
	C98.454475,128.858521 125.607750,128.768570 152.760498,128.769028 
	C201.735428,128.769867 250.710342,128.785095 299.685242,128.753922 
	C302.545807,128.752106 305.940002,129.654922 307.270447,125.225845 
	C310.786743,122.693466 314.498901,123.636017 318.579285,123.940964 
	C322.662598,127.103462 326.887543,127.741386 331.527466,127.595016 
	C339.135132,127.355026 346.758850,127.402824 354.369904,127.580521 
	C358.517975,127.677368 362.237274,126.884514 365.920105,124.083008 
	C369.823059,123.255882 373.300659,123.194786 377.210510,124.047089 
	C378.369080,128.344681 381.261536,128.828583 384.733826,128.814377 
	C401.230042,128.747009 417.727936,128.902481 434.222137,128.709702 
	C437.819855,128.667664 438.653992,129.804779 438.651825,133.213303 
	C438.643921,145.604340 438.763550,145.604340 426.547729,145.604507 
	C402.885803,145.604843 379.223877,145.580063 355.561981,145.614456 
	C339.754272,145.637436 331.210602,154.177475 331.171356,169.990219 
	C331.128357,187.319962 331.121460,204.649994 331.171661,221.979706 
	C331.214203,236.664185 340.187164,245.616638 354.854431,245.707962 
	C360.186432,245.741150 365.525391,245.868103 370.848572,245.647858 
	C373.995361,245.517685 375.283630,246.329666 375.088654,249.744339 
	C374.794708,254.893280 375.049011,260.071686 374.989197,265.236633 
	C374.962372,267.553528 375.341858,269.632446 377.687073,270.653503 
	C379.944122,271.636108 381.500183,270.107910 382.993713,268.800079 
	C390.633698,262.109802 398.326996,255.475922 405.808960,248.612228 
	C408.212799,246.407059 410.660736,245.570450 413.853088,245.658157 
	C420.679901,245.845718 427.524536,245.928497 434.343719,245.634033 
	C438.054688,245.473785 439.047791,247.007645 438.804260,250.636963 
	C440.636932,254.256424 440.328949,257.835175 440.342865,261.247620 
	C440.459320,289.817139 440.420654,318.387268 440.393402,346.957214 
	C440.391663,348.769226 440.568420,350.633301 439.248627,352.691833 
z"/>
<path fill="#0388EC" opacity="1.000000" stroke="none" 
	d="
M320.030579,124.336472 
	C315.838898,124.593231 312.043579,124.720016 307.806091,124.841385 
	C306.840881,121.022079 304.167023,120.865364 301.089355,120.870598 
	C269.441742,120.924492 237.794006,120.899765 206.146301,120.898315 
	C161.672958,120.896271 117.199440,120.839104 72.726570,120.982185 
	C68.344849,120.996284 66.596321,120.149574 66.753441,115.292366 
	C67.130226,103.644905 66.802849,91.976433 66.903793,80.317688 
	C66.970459,72.618073 70.118881,69.052124 77.645996,67.855698 
	C79.933067,67.492180 82.263687,67.215454 84.574440,67.214897 
	C197.173569,67.187599 309.772705,67.191841 422.371826,67.202744 
	C434.463959,67.203911 438.873566,71.693550 438.851227,83.789169 
	C438.831512,94.449318 438.734711,105.112053 438.940277,115.768463 
	C439.015381,119.662277 437.758453,121.010918 433.781769,120.965714 
	C417.460297,120.780243 401.135529,120.902939 384.812134,120.856705 
	C382.047577,120.848877 379.439117,120.942322 377.770203,124.008789 
	C373.880157,125.269691 370.063477,124.718102 365.773590,124.565247 
	C361.619873,122.656296 357.748505,122.319633 353.730957,122.379433 
	C345.152069,122.507111 336.569885,122.438362 327.989258,122.406555 
	C325.303528,122.396599 322.710999,122.608826 320.030579,124.336472 
z"/>
<path fill="#6EC8F7" opacity="1.000000" stroke="none" 
	d="
M201.037445,197.136261 
	C201.040878,220.109451 201.057175,242.601196 201.042725,265.092896 
	C201.033936,278.772644 193.777206,286.132904 180.185455,286.215881 
	C170.356079,286.275909 160.524536,286.347839 150.697113,286.202087 
	C146.026596,286.132782 143.995575,288.049164 144.108826,292.742798 
	C144.268127,299.344299 144.149109,305.952515 144.149109,313.288605 
	C139.079605,310.491943 135.901108,306.625122 132.155563,303.510559 
	C126.396637,298.721802 120.788139,293.744904 115.256187,288.694061 
	C113.113235,286.737488 110.818176,286.139648 108.004944,286.148590 
	C87.012970,286.215271 66.020622,286.186279 45.028442,286.157898 
	C31.836973,286.140045 24.701683,279.049957 24.662470,265.762878 
	C24.593634,242.438324 24.581453,219.113373 24.631901,195.788757 
	C24.661531,182.089371 31.935143,174.988235 45.712040,174.987457 
	C90.195694,174.984940 134.679337,174.979507 179.162994,174.987381 
	C193.834656,174.989975 200.911469,182.017807 201.037445,197.136261 
z"/>
<path fill="#F5759E" opacity="1.000000" stroke="none" 
	d="
M229.123642,430.247833 
	C220.442429,428.654297 215.045151,422.577972 215.009995,414.287445 
	C214.918182,392.631042 214.902817,370.973541 215.022675,349.317413 
	C215.075272,339.812683 222.222672,333.169373 232.260452,333.125000 
	C250.585114,333.043976 268.911469,332.999847 287.234589,333.187805 
	C291.037537,333.226868 293.908020,332.126251 296.638702,329.619049 
	C302.769745,323.989716 309.059998,318.533569 315.301178,313.024719 
	C316.273956,312.166077 317.213135,310.624054 318.574005,311.117950 
	C320.292358,311.741577 319.735260,313.663147 319.761261,315.075134 
	C319.841003,319.405151 319.872314,323.738464 319.794098,328.068207 
	C319.730103,331.612213 321.209625,333.182465 324.876862,333.127930 
	C333.704041,332.996613 342.534882,333.057037 351.363800,333.111542 
	C363.114746,333.184113 369.667145,339.477081 369.765320,351.303619 
	C369.936859,371.959381 369.923248,392.617981 369.804230,413.274353 
	C369.742737,423.945740 363.010101,430.317261 351.953461,430.335876 
	C317.635742,430.393677 283.317871,430.382050 249.000137,430.336761 
	C242.517456,430.328217 236.030258,431.261078 229.123642,430.247833 
z"/>
<path fill="#FBD5E5" opacity="1.000000" stroke="none" 
	d="
M462.114258,237.903351 
	C445.354736,237.624084 428.701111,237.769333 412.050171,237.620804 
	C407.951233,237.584259 404.766357,238.573730 401.744415,241.448547 
	C396.019684,246.894577 389.945404,251.973114 383.030640,258.074036 
	C383.030640,252.260422 382.950287,247.683289 383.055573,243.110428 
	C383.142487,239.335846 381.489349,237.617447 377.682648,237.661560 
	C370.188538,237.748428 362.691254,237.786407 355.197968,237.670685 
	C344.416412,237.504181 339.257782,232.306946 339.225586,221.627045 
	C339.173309,204.305130 339.154877,186.982834 339.211578,169.660995 
	C339.247101,158.812775 344.333435,153.729599 355.134857,153.718765 
	C389.445648,153.684326 423.756500,153.684402 458.067291,153.713943 
	C468.396179,153.722824 473.473755,158.685791 473.517090,168.992447 
	C473.592041,186.813751 473.471893,204.635818 473.502747,222.457428 
	C473.511963,227.795593 471.914581,232.258591 467.153992,235.635040 
	C466.563843,236.399506 466.147278,236.871658 465.478943,237.547668 
	C464.885468,238.020935 464.510742,238.241684 463.792633,238.508011 
	C463.013672,238.600037 462.599548,238.470490 462.114258,237.903351 
z"/>
<path fill="#F9FCFE" opacity="1.000000" stroke="none" 
	d="
M66.849144,359.374573 
	C73.652313,362.896423 81.038704,363.047943 88.523247,363.036194 
	C127.637589,362.974701 166.752090,363.004211 206.320435,363.003357 
	C206.632156,365.960297 208.055908,369.106140 205.343109,371.968292 
	C203.300629,372.813477 201.585541,372.867798 199.433090,372.293701 
	C198.570480,372.088776 198.117065,372.037476 197.328125,372.063873 
	C195.353775,373.272644 193.474976,372.982697 191.669022,372.983643 
	C156.246567,373.001587 120.824104,372.996155 85.401649,373.001312 
	C83.565269,373.001587 81.746086,372.926483 79.491768,372.295319 
	C70.902504,370.890930 67.535843,367.499512 66.849144,359.374573 
z"/>
<path fill="#F9FCFE" opacity="1.000000" stroke="none" 
	d="
M377.981506,363.451416 
	C393.624512,362.998627 409.179565,363.084351 424.732697,362.950592 
	C429.732361,362.907593 434.709686,362.246765 437.962158,357.075073 
	C439.092316,366.642731 434.374542,371.904663 424.564575,371.949402 
	C410.814850,372.012146 397.058868,371.726898 383.317596,372.070587 
	C378.668518,372.186890 377.094269,370.799713 377.839111,366.386200 
	C377.975342,365.579010 377.880798,364.732880 377.981506,363.451416 
z"/>
<path fill="#3D2963" opacity="1.000000" stroke="none" 
	d="
M446.032379,352.815613 
	C446.446472,353.431274 446.526825,353.886658 446.485291,354.672485 
	C445.603577,355.184235 444.671478,355.145844 444.112946,355.583832 
	C441.336243,357.761200 440.950684,356.167084 440.998413,353.367798 
	C439.940002,351.744110 440.014954,350.218262 440.014618,348.721436 
	C440.007446,319.227051 439.976562,289.732666 440.027710,260.238312 
	C440.029144,259.401245 440.113525,258.575348 440.699371,257.387939 
	C445.148468,256.362000 445.034088,259.032806 445.029510,261.923035 
	C444.984436,290.402832 444.988647,318.882751 445.035583,347.362518 
	C445.038483,349.123779 444.382111,351.033722 446.032379,352.815613 
z"/>
<path fill="#382E53" opacity="1.000000" stroke="none" 
	d="
M79.278717,372.413055 
	C118.036705,372.089050 157.050842,372.046448 196.528778,372.072693 
	C196.529984,374.600769 194.562271,373.981964 193.020126,373.983063 
	C156.928726,374.008362 120.837296,373.995178 84.745903,374.022766 
	C82.859047,374.024200 81.113106,373.763092 79.278717,372.413055 
z"/>
<path fill="#313258" opacity="1.000000" stroke="none" 
	d="
M441.006348,256.581299 
	C441.005249,288.686859 441.001953,320.376190 440.998108,352.534576 
	C440.658813,353.027344 440.320038,353.051025 439.470276,353.083832 
	C438.865936,342.470245 438.704590,331.847626 438.693207,321.224854 
	C438.668457,298.128967 438.720154,275.033020 438.840210,251.478943 
	C439.450256,251.272644 439.960663,251.524490 440.737976,251.888931 
	C441.004639,253.389359 441.004364,254.777206 441.006348,256.581299 
z"/>
<path fill="#3C2C63" opacity="1.000000" stroke="none" 
	d="
M461.968109,237.976181 
	C462.403870,237.444717 462.800385,237.302277 463.516235,237.177063 
	C464.030426,237.597626 464.315247,237.707397 464.841797,237.204102 
	C465.445862,236.623993 465.917084,236.301880 466.677673,235.947708 
	C469.125458,239.991119 467.851135,242.493134 462.898712,242.907501 
	C458.617493,243.265686 454.130585,243.665161 450.014374,242.765884 
	C446.199738,241.932465 445.591980,243.818069 445.068268,246.322800 
	C444.584259,248.637497 444.351196,250.942291 441.368225,251.958954 
	C441.004883,252.001526 441.000000,252.000000 440.999390,251.997864 
	C441.188629,248.741867 440.133362,245.539566 440.938507,242.215561 
	C441.526581,239.787720 442.464569,239.503311 444.962738,239.298477 
	C450.616516,238.834885 456.361359,239.988373 461.968109,237.976181 
z"/>
<path fill="#EAE6FB" opacity="1.000000" stroke="none" 
	d="
M191.502213,380.087952 
	C190.906616,381.282318 189.515656,380.993744 188.217651,380.994110 
	C153.351471,381.003540 118.485283,381.002136 83.619102,380.986481 
	C82.969452,380.986176 82.319885,380.791321 81.357559,380.420807 
	C117.709953,380.110016 154.375061,380.065643 191.502213,380.087952 
z"/>
<path fill="#EAE6F8" opacity="1.000000" stroke="none" 
	d="
M424.503601,380.089264 
	C423.406952,381.585785 421.489532,380.964478 419.732941,380.974976 
	C409.789825,381.034363 399.838715,381.219360 389.907043,380.876831 
	C386.785126,380.769165 384.524261,383.002258 381.300293,382.682556 
	C379.469666,382.500977 378.982574,385.407013 378.970032,387.539948 
	C378.929321,394.482910 378.760345,401.425110 378.358459,408.669861 
	C378.004486,400.366608 378.074860,391.756409 377.790527,383.157928 
	C377.678131,379.757904 379.551575,379.980438 381.815979,379.987122 
	C395.891083,380.028839 409.966339,380.016083 424.503601,380.089264 
z"/>
<path fill="#382E53" opacity="1.000000" stroke="none" 
	d="
M199.225388,372.384338 
	C200.728851,372.089111 202.433823,372.038177 204.558990,372.064972 
	C203.276398,373.995789 201.427887,374.183472 199.225388,372.384338 
z"/>
<path fill="#EAE6F8" opacity="1.000000" stroke="none" 
	d="
M429.628845,379.901642 
	C429.590912,382.079956 428.710815,382.635895 427.066589,380.465088 
	C427.757965,380.046204 428.505554,379.953827 429.628845,379.901642 
z"/>
<path fill="#EAE6FB" opacity="1.000000" stroke="none" 
	d="
M200.555847,380.090973 
	C199.596771,381.434052 198.065430,381.119965 196.276978,380.391815 
	C197.408798,380.106171 198.779526,380.061615 200.555847,380.090973 
z"/>
<path fill="#3C3769" opacity="1.000000" stroke="none" 
	d="
M319.741516,124.807755 
	C320.253052,121.743805 321.941956,120.828217 324.718689,120.853928 
	C336.216888,120.960396 347.717102,120.928986 359.215790,120.841934 
	C361.801910,120.822350 363.755951,121.602013 365.165466,124.142609 
	C364.263214,127.883018 361.779083,128.832977 358.406433,128.804413 
	C347.606384,128.712875 336.804962,128.765961 326.004120,128.787994 
	C323.205811,128.793701 320.588348,128.583786 319.741516,124.807755 
z"/>
<path fill="#C6F8FD" opacity="1.000000" stroke="none" 
	d="
M379.611084,85.195656 
	C384.776581,84.416969 388.551056,85.948219 390.853058,90.299568 
	C392.739624,93.865501 392.420837,97.458252 389.925323,100.582962 
	C387.248169,103.935074 383.821442,105.534073 379.380066,104.182816 
	C375.039154,102.862122 372.582184,99.832024 372.267120,95.553787 
	C371.899841,90.566879 374.360138,86.990547 379.611084,85.195656 
z"/>
<path fill="#E47AA9" opacity="1.000000" stroke="none" 
	d="
M420.874420,91.227715 
	C422.084991,98.110802 420.065125,102.332588 414.971741,104.203880 
	C410.757874,105.752037 405.957947,104.196388 403.539612,100.498787 
	C400.339050,95.605125 401.477753,89.454819 406.122345,86.548950 
	C411.628601,83.103989 416.959686,84.683365 420.874420,91.227715 
z"/>
<path fill="#EDFBFC" opacity="1.000000" stroke="none" 
	d="
M345.360718,101.513931 
	C341.981262,96.141823 342.053070,91.412308 345.300140,88.041328 
	C348.534882,84.683144 353.697418,83.974716 357.599792,86.353477 
	C362.336609,89.240891 363.791840,95.652641 360.750183,100.234047 
	C357.405518,105.271873 351.544891,105.877640 345.360718,101.513931 
z"/>
<path fill="#363368" opacity="1.000000" stroke="none" 
	d="
M107.833229,202.464935 
	C115.969849,201.235550 123.363350,201.961273 128.870865,208.126572 
	C134.441513,214.362549 133.944366,221.841827 128.074890,227.777405 
	C123.361710,232.543640 117.323746,236.199554 116.056480,243.689178 
	C115.670174,245.972321 113.236511,246.267899 111.132347,246.026108 
	C108.550468,245.729416 107.371651,243.902023 107.185204,241.595993 
	C106.864227,237.626205 108.007988,233.981598 110.764656,231.063828 
	C113.268532,228.413589 116.090576,226.065216 118.615540,223.433334 
	C122.562851,219.318832 122.624535,215.233521 118.963509,212.228195 
	C115.020248,208.991211 109.044159,209.563995 106.183548,213.677856 
	C104.876205,215.557968 104.014946,217.767212 103.083885,219.885422 
	C101.784813,222.840881 99.532051,223.828491 96.619072,222.856384 
	C93.607986,221.851562 92.636894,219.330276 93.298958,216.446869 
	C95.037773,208.874039 100.115295,204.556503 107.833229,202.464935 
z"/>
<path fill="#363368" opacity="1.000000" stroke="none" 
	d="
M52.267502,239.891754 
	C51.689083,239.346619 51.252975,239.126801 50.569550,238.888321 
	C44.753826,235.891739 44.008347,231.096558 48.719368,226.240494 
	C49.047340,226.031082 49.006321,225.996475 49.011627,226.022766 
	C49.264313,225.741013 49.553944,225.479034 50.170128,225.204544 
	C59.438965,221.372696 68.423485,217.606491 77.393509,213.806091 
	C80.169350,212.630035 82.945679,212.004028 84.932777,214.931702 
	C86.839455,217.740845 86.004250,220.255524 83.122574,222.488464 
	C82.113533,224.285110 80.338478,223.935913 78.797028,224.752869 
	C78.106468,224.811279 77.777611,224.832764 77.227074,224.972870 
	C75.463531,226.834335 73.320175,227.233170 70.846748,227.745819 
	C70.150917,227.840042 69.810501,227.877106 69.238205,228.030884 
	C67.059074,229.659622 64.722694,230.472687 62.223122,231.944275 
	C64.637527,233.485245 67.058174,234.568039 69.694748,235.917786 
	C69.911736,236.182877 69.981613,236.087936 69.926666,236.109253 
	C70.683159,236.657761 71.659294,236.411957 72.681503,237.000122 
	C72.840340,237.304886 72.968697,237.235809 72.895905,237.239304 
	C75.369186,237.957214 77.991821,238.435959 80.483788,240.035172 
	C80.605423,240.378860 80.700378,240.374863 80.721939,240.332520 
	C81.100166,240.274551 81.407089,240.386612 81.830780,240.835709 
	C82.004982,241.025406 82.248070,241.203262 82.397964,241.188644 
	C84.004738,241.393448 85.014290,242.188522 85.703636,243.857925 
	C85.815407,244.176376 85.787308,244.050018 85.774445,244.113449 
	C87.935684,246.755875 86.867989,248.748184 84.227776,250.690186 
	C83.842941,250.854843 83.987694,250.897705 83.926865,250.853027 
	C80.044983,253.618820 76.961609,250.799744 73.389320,249.165619 
	C73.096077,248.857300 72.995499,248.913834 73.052650,248.906006 
	C71.947655,248.291122 70.503311,248.394623 69.239410,247.221832 
	C69.005241,246.989563 68.770599,246.797287 68.619415,246.809494 
	C64.596008,245.922165 60.773968,244.897644 57.297596,242.139755 
	C56.592041,241.567993 56.120083,241.286880 55.362946,240.986603 
	C54.320866,240.246460 53.246086,240.655777 52.267502,239.891754 
z"/>
<path fill="#363267" opacity="1.000000" stroke="none" 
	d="
M149.167404,239.191803 
	C154.915619,236.910065 160.301559,234.760330 166.907990,232.123444 
	C161.289230,229.861710 156.664200,227.976929 152.020645,226.138916 
	C148.935928,224.917938 145.766876,223.893417 142.741989,222.542664 
	C139.821228,221.238419 139.070648,218.690887 140.166641,215.874527 
	C141.246262,213.100250 143.745743,212.210358 146.339554,213.287827 
	C156.151520,217.363770 166.004608,221.384338 175.573029,225.985596 
	C180.789398,228.494019 180.618607,235.936752 175.314606,238.475418 
	C166.034988,242.916946 156.502167,246.839066 147.004822,250.809921 
	C144.299332,251.941116 141.489243,251.447021 140.254349,248.456573 
	C138.995575,245.408279 140.191437,242.902512 143.246475,241.515686 
	C145.057770,240.693466 146.949539,240.048508 149.167404,239.191803 
z"/>
<path fill="#294072" opacity="1.000000" stroke="none" 
	d="
M106.674950,257.295227 
	C105.825653,252.841003 107.785767,250.585739 111.646629,249.970657 
	C114.570778,249.504807 117.026970,250.604660 117.859848,253.615845 
	C118.722366,256.734161 118.217598,259.652527 114.763809,261.037018 
	C111.070168,262.517639 108.318291,261.444489 106.674950,257.295227 
z"/>
<path fill="#76BBE8" opacity="1.000000" stroke="none" 
	d="
M69.806122,235.852829 
	C66.226059,235.540283 62.957172,233.851105 58.623207,231.978882 
	C62.414688,230.477173 65.343994,229.316940 68.639801,228.152161 
	C68.933060,230.442429 66.218620,230.193893 65.395500,231.921951 
	C66.090462,233.960098 68.861397,233.632614 69.806122,235.852829 
z"/>
<path fill="#76BBE8" opacity="1.000000" stroke="none" 
	d="
M48.651962,226.026138 
	C45.142181,231.681244 45.276516,233.720001 50.090019,238.600494 
	C47.394718,239.254700 45.127106,238.041306 45.172989,235.109604 
	C45.223061,231.910141 43.112549,227.610275 48.651962,226.026138 
z"/>
<path fill="#76BBE8" opacity="1.000000" stroke="none" 
	d="
M57.077896,242.221680 
	C60.687626,243.332794 64.311256,244.816483 68.201553,246.560944 
	C64.067200,247.051102 59.796276,246.930405 57.077896,242.221680 
z"/>
<path fill="#76BBE8" opacity="1.000000" stroke="none" 
	d="
M73.116974,249.227631 
	C76.447769,249.364594 79.347664,252.073624 83.455284,250.853516 
	C83.760269,253.786636 81.427361,253.155594 79.900116,252.872635 
	C77.422707,252.413651 74.898155,251.698685 73.116974,249.227631 
z"/>
<path fill="#76BBE8" opacity="1.000000" stroke="none" 
	d="
M80.723175,239.993134 
	C77.937057,240.138290 75.653603,238.806259 73.041260,237.515518 
	C75.012260,237.214447 77.203461,237.116623 79.389885,237.180954 
	C80.976273,237.227631 80.946938,238.441864 80.723175,239.993134 
z"/>
<path fill="#76BBE8" opacity="1.000000" stroke="none" 
	d="
M84.248474,250.898483 
	C84.985870,249.033264 86.404915,247.301575 85.770889,244.540695 
	C88.420647,244.092697 87.937737,246.058533 87.964081,247.625534 
	C88.001106,249.827896 86.915398,250.992401 84.248474,250.898483 
z"/>
<path fill="#76BBE8" opacity="1.000000" stroke="none" 
	d="
M70.927536,227.856903 
	C72.426994,226.902328 74.362656,226.001678 76.651855,225.096252 
	C76.481041,228.745087 73.707100,227.897125 70.927536,227.856903 
z"/>
<path fill="#76BBE8" opacity="1.000000" stroke="none" 
	d="
M78.868774,224.847000 
	C79.439751,223.661880 80.812103,223.248367 82.543961,222.800476 
	C82.847557,225.382401 80.950272,224.935837 78.868774,224.847000 
z"/>
<path fill="#76BBE8" opacity="1.000000" stroke="none" 
	d="
M85.868378,243.770233 
	C84.862381,243.344879 83.909355,242.513382 82.752090,241.427963 
	C84.271370,240.981339 85.978477,240.813919 85.868378,243.770233 
z"/>
<path fill="#76BBE8" opacity="1.000000" stroke="none" 
	d="
M69.069977,247.354156 
	C70.242706,247.447327 71.480171,247.905106 72.913719,248.630524 
	C71.682762,248.848846 70.018051,249.600525 69.069977,247.354156 
z"/>
<path fill="#76BBE8" opacity="1.000000" stroke="none" 
	d="
M52.243191,239.912201 
	C52.964359,239.864319 53.803516,240.162201 54.860218,240.713745 
	C54.107918,240.977219 53.100746,241.129959 52.243191,239.912201 
z"/>
<path fill="#76BBE8" opacity="1.000000" stroke="none" 
	d="
M72.712692,236.969635 
	C71.993820,237.082825 71.147308,236.860764 70.086258,236.384644 
	C70.826019,236.029938 71.794884,235.850906 72.712692,236.969635 
z"/>
<path fill="#76BBE8" opacity="1.000000" stroke="none" 
	d="
M50.156536,225.183899 
	C50.171261,225.410355 49.882481,225.668594 49.305317,225.987946 
	C49.295635,225.771271 49.574333,225.493500 50.156536,225.183899 
z"/>
<path fill="#76BBE8" opacity="1.000000" stroke="none" 
	d="
M81.867935,240.796310 
	C81.663879,240.939850 81.322784,240.854279 80.862587,240.529434 
	C81.072632,240.382507 81.401764,240.474869 81.867935,240.796310 
z"/>
<path fill="#492C5E" opacity="1.000000" stroke="none" 
	d="
M329.701355,386.772827 
	C327.897034,388.441986 327.903473,390.280273 327.908356,392.126556 
	C327.918030,395.784271 327.931763,399.442169 327.907623,403.099762 
	C327.838562,413.572998 323.684845,417.157532 313.292847,415.796783 
	C311.086060,415.507843 309.363708,414.638855 309.236877,412.226562 
	C309.105133,409.721405 310.940826,408.379486 313.031708,408.512451 
	C318.303467,408.847687 318.359039,405.674652 318.384308,401.836823 
	C318.415924,397.042450 316.983978,391.818787 319.249603,387.558044 
	C321.371399,383.567780 321.919189,381.034088 319.427887,376.737579 
	C316.804138,372.212708 318.399292,366.309937 318.352997,361.009735 
	C318.324768,357.780731 317.897919,355.521393 313.815582,355.642609 
	C311.396362,355.714508 308.957550,354.674957 309.270447,351.584229 
	C309.570526,348.620026 311.991913,348.260498 314.483734,348.142670 
	C324.583099,347.664978 327.860474,350.683197 327.892761,360.606140 
	C327.902496,363.598785 328.052277,366.599213 327.887024,369.582214 
	C327.637604,374.084351 327.975311,377.965576 333.736694,378.617371 
	C335.378265,378.803040 336.138458,380.228271 336.116028,381.950470 
	C336.094391,383.614014 335.467773,384.868408 333.836151,385.421509 
	C332.587708,385.844666 331.302795,386.160309 329.701355,386.772827 
z"/>
<path fill="#462A5E" opacity="1.000000" stroke="none" 
	d="
M265.493103,376.906860 
	C262.400482,380.337311 262.244781,382.863037 265.026276,386.679382 
	C267.666870,390.302338 266.055023,395.423676 266.001160,399.863464 
	C265.942810,404.674530 265.715088,409.026520 272.489716,408.811035 
	C274.438660,408.749054 275.304810,410.289551 275.219177,412.259552 
	C275.132111,414.262939 273.906921,415.172302 272.150024,415.653503 
	C262.951599,418.172760 256.982117,413.751923 256.927948,404.362427 
	C256.909698,401.201477 256.829681,398.037567 256.932404,394.880035 
	C257.080780,390.319275 257.042236,386.039185 250.937393,385.370453 
	C249.265976,385.187378 248.440811,383.716125 248.404205,382.099426 
	C248.361511,380.214813 249.432098,378.769165 251.253647,378.541199 
	C256.727509,377.856232 257.079346,374.098328 256.959015,369.798401 
	C256.838074,365.476349 256.959625,361.148010 256.933990,356.822632 
	C256.911438,353.020966 258.871979,350.337830 262.187531,349.090698 
	C265.947510,347.676392 269.982697,347.459717 273.821503,349.102173 
	C275.251617,349.714020 275.340546,351.226410 275.072937,352.577545 
	C274.706818,354.426117 273.370697,355.721985 271.597931,355.580200 
	C266.027954,355.134705 265.969788,358.592377 266.032898,362.602081 
	C266.106018,367.245789 265.817841,371.895203 265.493103,376.906860 
z"/>
<path fill="#5B2B5B" opacity="1.000000" stroke="none" 
	d="
M295.658722,407.504517 
	C294.540222,408.989197 293.752350,410.293732 292.662109,411.255524 
	C291.583099,412.207428 290.196320,412.171570 289.022125,411.186401 
	C287.755219,410.123444 287.814514,408.782196 288.755035,407.656189 
	C291.104523,404.843414 291.917969,402.642731 288.029419,400.117645 
	C286.044464,398.828735 286.382538,395.835663 287.513702,393.668915 
	C288.493683,391.791779 290.349762,390.900604 292.508911,391.029022 
	C294.901672,391.171387 296.468597,392.470642 297.308014,394.723511 
	C298.950287,399.131134 297.703186,403.183228 295.658722,407.504517 
z"/>
<path fill="#652A57" opacity="1.000000" stroke="none" 
	d="
M289.238190,373.726562 
	C285.858734,371.822479 286.097443,368.795715 287.841431,366.233734 
	C289.582916,363.675415 292.472382,363.196655 295.322571,364.835327 
	C298.050873,366.403900 298.642883,369.013306 297.682587,371.689606 
	C296.227722,375.744232 292.933624,375.632477 289.249573,374.303589 
	C289.967468,372.941559 291.386749,372.886169 292.550629,372.296936 
	C293.665894,371.732300 294.393188,370.884399 294.132812,369.532593 
	C293.959991,368.635468 293.365326,368.041473 292.468018,367.953857 
	C290.902008,367.800934 290.583282,368.992950 290.336060,370.155731 
	C290.097778,371.276489 290.149933,372.469971 289.238190,373.726562 
z"/>
<path fill="#433160" opacity="1.000000" stroke="none" 
	d="
M371.430603,205.546051 
	C368.347748,204.183868 365.564636,203.077820 362.867554,201.791534 
	C360.465851,200.646133 358.936127,198.810257 358.950104,195.951462 
	C358.965057,192.886047 360.591522,191.036072 363.270538,189.879730 
	C371.047638,186.522949 378.836761,183.192993 386.579559,179.758652 
	C389.351868,178.528976 391.624664,178.985657 392.808533,181.723022 
	C393.970551,184.409821 392.885010,186.674881 390.128448,187.785980 
	C383.710968,190.372650 377.249847,192.851120 369.622681,195.836777 
	C375.951263,198.390320 381.260651,200.522980 386.561188,202.677429 
	C388.093658,203.300308 389.670044,203.862762 391.103607,204.670654 
	C393.390869,205.959686 393.756195,208.184158 392.751038,210.285233 
	C391.738770,212.401291 389.813599,213.410980 387.350037,212.363739 
	C382.154022,210.155014 376.961670,207.937622 371.430603,205.546051 
z"/>
<path fill="#433060" opacity="1.000000" stroke="none" 
	d="
M440.436798,194.607788 
	C434.660034,192.340454 429.256622,190.192383 423.810577,188.158585 
	C420.778412,187.026230 418.664764,185.243622 420.062866,181.831299 
	C421.515686,178.285400 424.396301,178.947647 427.212982,180.160202 
	C434.392090,183.250717 441.586609,186.305557 448.755432,189.419632 
	C451.625977,190.666580 454.062225,192.358841 453.966583,195.973999 
	C453.879791,199.254013 451.818817,200.991318 449.040436,202.195709 
	C441.719330,205.369339 434.430908,208.618805 427.097443,211.763351 
	C424.321045,212.953857 421.356232,213.588058 420.011688,209.906860 
	C418.764130,206.491257 420.836670,204.744781 423.881317,203.602524 
	C429.481750,201.501404 435.018707,199.230667 440.575226,197.013412 
	C442.034119,196.431274 443.473450,195.786545 440.436798,194.607788 
z"/>
<path fill="#443160" opacity="1.000000" stroke="none" 
	d="
M415.746521,174.907501 
	C412.325043,188.984833 409.035156,202.688278 405.674500,216.374344 
	C405.286530,217.954224 405.124023,219.667801 403.914825,220.972015 
	C402.421448,222.582733 400.554260,222.601013 398.926208,221.640533 
	C396.742126,220.352020 396.763672,218.153305 397.321472,215.889221 
	C400.057007,204.785446 402.753906,193.672195 405.467255,182.562958 
	C406.175415,179.663666 406.968689,176.782669 407.584534,173.864090 
	C408.122681,171.313721 409.250458,169.359467 412.137207,169.637756 
	C414.922546,169.906235 416.066925,171.792587 415.746521,174.907501 
z"/>
<path fill="#3E3364" opacity="1.000000" stroke="none" 
	d="
M464.773804,236.925140 
	C464.766083,237.385193 465.178802,238.643051 463.889435,237.461456 
	C464.044067,237.002640 464.289856,236.905945 464.773804,236.925140 
z"/>
<path fill="#FD6DAF" opacity="1.000000" stroke="none" 
	d="
M410.330627,97.797310 
	C408.898132,96.059502 409.125641,95.116867 411.139984,95.077553 
	C412.627228,95.048515 413.971558,95.836861 413.778015,97.337814 
	C413.456329,99.832321 411.911377,98.905449 410.330627,97.797310 
z"/>
<path fill="#412A5F" opacity="1.000000" stroke="none" 
	d="
M109.074631,256.573120 
	C108.921776,254.046112 109.251282,252.185501 111.963310,252.077972 
	C114.246292,251.987427 114.981850,253.721985 115.637108,255.409653 
	C116.409477,257.398956 115.206490,258.394287 113.598343,259.206818 
	C111.040550,260.499176 110.082237,258.768829 109.074631,256.573120 
z"/>
<path fill="#372C61" opacity="1.000000" stroke="none" 
	d="
M292.863892,402.314026 
	C291.933044,400.545166 291.151947,399.085388 290.173279,397.772919 
	C289.052582,396.269989 288.391144,394.692383 290.268402,393.558990 
	C292.304382,392.329773 294.126221,393.044861 295.100464,395.264008 
	C297.073181,399.757599 295.844666,403.753723 293.140320,407.930450 
	C291.148529,405.916351 293.462372,404.267944 292.863892,402.314026 
z"/>
<path fill="#3B2C5E" opacity="1.000000" stroke="none" 
	d="
M289.008057,373.991150 
	C289.004883,372.827789 288.986572,371.673309 288.983887,370.518768 
	C288.979126,368.483459 288.929382,366.318268 291.700134,366.099243 
	C294.024750,365.915466 295.542267,367.267090 295.857544,369.461212 
	C296.221497,371.994110 294.743469,373.477997 292.300110,373.930756 
	C291.502136,374.078644 290.655609,373.964386 289.424469,373.976898 
	C289.017670,373.983826 289.000000,374.000000 289.008057,373.991150 
z"/>
</svg>